# xmcd
#
# Track frame offsets:
#	150
#	11041
#	23231
#	32720
#	43063
#	53068
#	61981
#	74699
#	86576
#	96854
#	108287
#	120643
#	129406
#	142197
#	153942
#	164789
#	175509
#	187722
#	199945
#	209156
#	223167
#	236192
#	247270
#	255967
#	266990
#
# Disc length: 3715 seconds
#
# Revision: 1
# Processed by: cddbd v1.5.2PL0 Copyright (c) Steve Scherf et al.
# Submitted via: audiograbber 1.83.01
#
DISCID=7c0e8119
DTITLE=Jim Reeves - The Best Of Jim Reeves Disc 2
DYEAR=2014
DGENRE=Country
TTITLE0=He'll Have To go
TTITLE1=A Room Full Of Roses
TTITLE2=Dear Hearts And Gentle People
TTITLE3=Losing Your Love
TTITLE4=A Fool Such As I
TTITLE5=Home
TTITLE6=Bimbo
TTITLE7=Am I Losing You
TTITLE8=I'm Gettin' Better
TTITLE9=Adios Amigo
TTITLE10=The Mighty Everglades
TTITLE11=A Railroad Bum
TTITLE12=The Tie That Binds
TTITLE13=Mona Lisa
TTITLE14=My Lips Are Sealed
TTITLE15=Highway To Nowhere
TTITLE16=Wild Rose
TTITLE17=All Dressed Up And Lonely
TTITLE18=I Know One
TTITLE19=We Could
TTITLE20=It's No Sin
TTITLE21=If Heartache Is The Fashion
TTITLE22=Throw Another Log On The Fire
TTITLE23=Someday ( You'll Want Me To Want you)
TTITLE24=Have You Ever Been Lonely
EXTD=
EXTT0=
EXTT1=
EXTT2=
EXTT3=
EXTT4=
EXTT5=
EXTT6=
EXTT7=
EXTT8=
EXTT9=
EXTT10=
EXTT11=
EXTT12=
EXTT13=
EXTT14=
EXTT15=
EXTT16=
EXTT17=
EXTT18=
EXTT19=
EXTT20=
EXTT21=
EXTT22=
EXTT23=
EXTT24=
PLAYORDER=
